<svg xmlns="http://www.w3.org/2000/svg" width="54" height="38" viewBox="0 0 54 38">
    <defs>
        <linearGradient id="a" x1="-1.816%" x2="117.054%" y1="69.515%" y2="38.068%">
            <stop offset="0%" stop-color="#59F7F0"/>
            <stop offset="49.223%" stop-color="#02A2B4"/>
            <stop offset="100%" stop-color="#067781"/>
        </linearGradient>
    </defs>
    <path fill="url(#a)" fill-rule="nonzero" d="M45.365 30.288h10.329V51h-10.33V30.288zM61.29 13c8.652.012 15.714 7.423 15.714 16.568V51H66.862V29.57c0-3.427-2.498-6.232-5.742-6.232-2.425 0-4.377 1.454-5.272 3.748h-10.74c-.895-2.294-2.823-3.748-5.248-3.748-3.243 0-5.717 2.805-5.717 6.231V51H24V13.326h10.143v.879c5.562-2.428 12.058-1.124 16.509 3.34 2.905-2.92 6.629-4.547 10.638-4.544z" transform="translate(-24 -13)"/>
</svg>
