<svg xmlns="http://www.w3.org/2000/svg" width="45" height="32" viewBox="0 0 45 32">
    <defs>
        <linearGradient id="a" x1="-1.816%" x2="117.054%" y1="69.515%" y2="38.068%">
            <stop offset="0%" stop-color="#59F7F0"/>
            <stop offset="49.223%" stop-color="#02A2B4"/>
            <stop offset="100%" stop-color="#067781"/>
        </linearGradient>
    </defs>
    <path fill="url(#a)" fill-rule="nonzero" d="M41.991 30.558h8.699V48H41.99V30.558zM55.402 16c7.286.01 13.233 6.25 13.233 13.952V48h-8.54V29.953c0-2.885-2.105-5.247-4.836-5.247-2.042 0-3.686 1.224-4.44 3.155h-9.044c-.754-1.93-2.377-3.155-4.42-3.155-2.73 0-4.814 2.362-4.814 5.247V48H24V16.275h8.541v.74c4.684-2.045 10.155-.946 13.903 2.812 2.446-2.459 5.582-3.829 8.958-3.826z" transform="translate(-24 -16)"/>
</svg>
