<svg xmlns="http://www.w3.org/2000/svg" width="584" height="419" viewBox="0 0 584 419">
    <defs>
        <linearGradient id="a" x1="-1.816%" x2="117.054%" y1="69.515%" y2="38.068%">
            <stop offset="0%" stop-color="#59F7F0"/>
            <stop offset="49.223%" stop-color="#02A2B4"/>
            <stop offset="100%" stop-color="#067781"/>
        </linearGradient>
    </defs>
    <path fill="url(#a)" fill-rule="nonzero" d="M235.397 190.474h113.805v228.21H235.397v-228.21zM410.864.014C506.19.143 584 81.797 584 182.559v236.125H472.253V182.558c0-37.751-27.529-68.653-63.268-68.653-26.714 0-48.225 16.02-58.085 41.289H232.56c-9.854-25.27-31.101-41.289-57.815-41.289-35.729 0-62.993 30.907-62.993 68.653v236.125H0V3.593h111.752v9.683C173.04-13.47 244.61.896 293.65 50.07 325.662 17.904 366.685-.02 410.864.015z"/>
</svg>
