<?xml version="1.0" standalone="no"?>
<!DOCTYPE svg PUBLIC "-//W3C//DTD SVG 20010904//EN"
 "http://www.w3.org/TR/2001/REC-SVG-20010904/DTD/svg10.dtd">
<svg version="1.0" xmlns="http://www.w3.org/2000/svg"
 width="788.000000pt" height="788.000000pt" viewBox="0 0 788.000000 788.000000"
 preserveAspectRatio="xMidYMid meet">
<metadata>
Created by potrace 1.11, written by Peter Selinger 2001-2013
</metadata>
<g transform="translate(0.000000,788.000000) scale(0.100000,-0.100000)"
fill="#000000" stroke="none">
<path d="M2200 6574 c-58 -7 -125 -19 -150 -25 -25 -6 -58 -13 -75 -16 -16 -2
-88 -25 -160 -49 -188 -65 -172 -65 -172 -4 -1 28 -4 54 -8 58 -3 4 -323 7
-711 7 l-704 0 0 -2642 0 -2643 710 0 c561 0 710 3 711 13 0 6 2 712 4 1567 2
855 5 1566 8 1580 75 377 310 633 646 705 62 13 244 14 296 2 11 -3 34 -8 50
-12 34 -7 46 -12 129 -50 159 -71 304 -222 384 -400 l23 -50 751 0 751 0 44
84 c123 234 303 375 543 425 62 14 252 14 309 2 236 -52 442 -216 555 -442 39
-77 80 -211 90 -289 3 -27 6 -744 6 -1593 l0 -1542 713 2 712 3 -1 1535 c0
1374 -3 1684 -18 1770 -2 14 -7 47 -11 73 -6 45 -12 77 -19 102 -2 6 -6 28
-10 50 -5 22 -14 63 -22 91 -8 28 -16 60 -19 70 -2 11 -15 51 -28 89 -122 346
-296 631 -536 879 -320 329 -724 547 -1166 630 -137 26 -165 28 -350 31 -177
3 -320 -11 -470 -45 -27 -7 -59 -14 -71 -16 -42 -8 -201 -63 -284 -99 -219
-94 -411 -218 -606 -392 -45 -40 -84 -73 -87 -73 -5 0 -27 19 -108 95 -139
130 -406 295 -614 380 -22 9 -49 20 -60 25 -58 25 -267 83 -340 94 -22 3 -52
8 -67 11 -72 14 -105 16 -278 20 -123 2 -220 -1 -290 -11z"/>
<path d="M3219 4165 c0 0 -1 -654 -2 -1453 l-2 -1452 725 2 725 3 0 1450 0
1450 -722 0 c-398 0 -723 0 -724 0z"/>
</g>
</svg>
